# xmcd
#
# Track frame offsets:
#	150
#	11582
#	24541
#	39467
#	54736
#	62003
#	75841
#	89076
#	102432
#	117070
#	132116
#	146246
#	155629
#	162040
#	174787
#	190247
#	200933
#	213416
#	224833
#	239006
#
# Disc length: 3377 seconds
#
# Revision: 0
# Processed by: cddbd v1.4PL0 Copyright (c) Steve Scherf et al.
# Submitted via: dBpowerAMP V4.0
#
DISCID=240d2f14
DTITLE=disque5 - CINE
DYEAR=2001
DGENRE=Chanson
TTITLE0=j'ai ma combine  Georges Milton
TTITLE1=c'est pour mon papa  Georges Milton
TTITLE2=le chaland qui passe  Lys Gauty
TTITLE3=à Paris dans chaque pays   Lys Gauty
TTITLE4=à la balle étoile  Florelle
TTITLE5=pour être heureux chantez  Mistinguett
TTITLE6=en parlant un peu de Paris  Henry Garat
TTITLE7=ma pomme  M.Chevalier
TTITLE8=où est-il donc  Fréhel
TTITLE9=quand on s'promène au bord de l'eau  Jean Gabin
TTITLE10=tant qu'il y aura des étoiles  Tino Rossi
TTITLE11=Ignace  Fernandel
TTITLE12=il peut neiger  Danielle Darieux
TTITLE13=un jour mon prince viendra  Elyane Celis
TTITLE14=l'amour incompris  Fernandel
TTITLE15=Paris je t'aime d'amour  M.Chevalier
TTITLE16=les gars de la Marine  Jean Murat
TTITLE17=les chansons de Paris  Georges Thill
TTITLE18=Marinela  Tino Rossi
TTITLE19=j'aime les femmes, c'est la folie Tino Rossi
EXTD=
EXTT0=
EXTT1=
EXTT2=
EXTT3=
EXTT4=
EXTT5=
EXTT6=
EXTT7=
EXTT8=
EXTT9=
EXTT10=
EXTT11=
EXTT12=
EXTT13=
EXTT14=
EXTT15=
EXTT16=
EXTT17=
EXTT18=
EXTT19=
PLAYORDER=
